<?xml version="1.0" encoding="UTF-8" standalone="no"?>
<svg
 xmlns:dc="http://purl.org/dc/elements/1.1/"
 xmlns:cc="http://creativecommons.org/ns#"
 xmlns:rdf="http://www.w3.org/1999/02/22-rdf-syntax-ns#"
 xmlns:svg="http://www.w3.org/2000/svg"
 xmlns="http://www.w3.org/2000/svg"
 xmlns:sodipodi="http://sodipodi.sourceforge.net/DTD/sodipodi-0.dtd"
 xmlns:inkscape="http://www.inkscape.org/namespaces/inkscape"
 viewBox="0 0 550 470"
 id="svg2"
 version="1.1">
<defs
 id="defs4" />
<sodipodi:namedview
 id="base"
 pagecolor="#ffffff"
 bordercolor="#666666"
 borderopacity="1.0"
 inkscape:pageopacity="0.0"
 inkscape:pageshadow="2"
 inkscape:zoom="0.49497475"
 inkscape:cx="246.80244"
 inkscape:cy="321.29823"
 inkscape:document-units="px"
 inkscape:current-layer="layer1"
 showgrid="false"
 inkscape:window-width="1526"
 inkscape:window-height="856"
 inkscape:window-x="0"
 inkscape:window-y="0"
 inkscape:window-maximized="0" />
<metadata
 id="metadata7">
<rdf:RDF>
<cc:Work
 rdf:about="">
<dc:format>image/svg+xml</dc:format>
<dc:type
 rdf:resource="http://purl.org/dc/dcmitype/StillImage" />
<dc:title />
</cc:Work>
</rdf:RDF>
</metadata>
<g
 inkscape:label="Ebene 1"
 inkscape:groupmode="layer"
 id="layer1"
 transform="translate(0,-112.36218)">
<g
 id="g3876"
 style="font-size:35px;font-style:normal;font-variant:normal;font-weight:bold;font-stretch:normal;line-height:125%;letter-spacing:0px;word-spacing:0px;opacity:0.04000001;fill:#000000;fill-opacity:1;stroke:none;font-family:Syncopate;-inkscape-font-specification:Syncopate Bold"
 transform="matrix(0.76604444,-0.64278761,0.64278761,0.76604444,-2,-469.08475)">
<path
 id="path3878"
 d="M -514.11133,806.72223 C -514.11135,807.8046 -514.25377,808.84708 -514.53857,809.84967 -514.81204,810.84089 -515.2051,811.77513 -515.71777,812.6524 -516.23049,813.5183 -516.84573,814.31012 -517.56348,815.02789 -518.26988,815.73428 -519.06171,816.34381 -519.93896,816.85651 -520.81626,817.35781 -521.7562,817.75088 -522.75879,818.03571 -523.76141,818.30914 -524.80389,818.44586 -525.88623,818.44586 -526.95721,818.44586 -527.99399,818.30914 -528.99658,818.03571 -529.9992,817.75088 -530.93344,817.35781 -531.79932,816.85651 -532.66521,816.34381 -533.45704,815.73428 -534.1748,815.02789 -534.88119,814.31012 -535.49073,813.5183 -536.00342,812.6524 -536.51612,811.77513 -536.91488,810.84089 -537.19971,809.84967 -537.47315,808.84708 -537.60987,807.8046 -537.60986,806.72223 -537.60987,805.63989 -537.47315,804.59741 -537.19971,803.59479 -536.91488,802.5922 -536.51612,801.65796 -536.00342,800.79205 -535.49073,799.91479 -534.88119,799.11727 -534.1748,798.39948 -533.45704,797.68172 -532.66521,797.07219 -531.79932,796.57086 -530.93344,796.05819 -530.00489,795.66512 -529.01367,795.39166 -528.01108,795.10686 -526.9686,794.96444 -525.88623,794.96442 -524.80389,794.96444 -523.76141,795.10686 -522.75879,795.39166 -521.7562,795.66512 -520.81626,796.05819 -519.93896,796.57086 -519.06171,797.07219 -518.26988,797.68172 -517.56348,798.39948 -516.84573,799.11727 -516.23049,799.91479 -515.71777,800.79205 -515.2051,801.65796 -514.81204,802.5922 -514.53857,803.59479 -514.25377,804.59741 -514.11135,805.63989 -514.11133,806.72223 M -520.81055,812.53278 C -521.63088,812.96572 -522.4398,813.29613 -523.2373,813.52399 -524.03485,813.75186 -524.91782,813.86579 -525.88623,813.86578 -526.84327,813.86579 -527.74334,813.70628 -528.58643,813.38727 -529.41814,813.05687 -530.14161,812.58975 -530.75684,811.9859 -531.37208,811.37067 -531.85629,810.62442 -532.20947,809.74713 -532.56267,808.86986 -532.73926,807.87296 -532.73926,806.75641 -532.73926,805.63989 -532.56267,804.64298 -532.20947,803.76569 -531.85629,802.87703 -531.37208,802.12508 -530.75684,801.50983 -530.14161,800.89461 -529.41814,800.42749 -528.58643,800.10846 -527.74334,799.77807 -526.84327,799.61287 -525.88623,799.61285 -525.40773,799.61287 -524.9577,799.64136 -524.53613,799.6983 -524.10321,799.74389 -523.68166,799.82365 -523.27148,799.93756 -522.86134,800.04012 -522.45689,800.17684 -522.05811,800.34772 -521.64797,800.50724 -521.23211,800.69523 -520.81055,800.91168 L -520.81055,804.02203 C -521.27769,803.66886 -521.71063,803.37833 -522.10937,803.15045 -522.50815,802.9226 -522.88983,802.74031 -523.25439,802.60358 -523.61899,802.46687 -523.98358,802.37573 -524.34814,802.33014 -524.71274,802.27319 -525.09442,802.24471 -525.49316,802.24469 -526.15398,802.24471 -526.74643,802.35294 -527.27051,802.5694 -527.79461,802.78588 -528.24464,803.0935 -528.62061,803.49225 -528.9852,803.87963 -529.27003,804.35245 -529.4751,804.91071 -529.66879,805.46899 -529.76563,806.08422 -529.76562,806.75641 -529.76563,807.42862 -529.66879,808.03816 -529.4751,808.58502 -529.27003,809.13191 -528.9852,809.60472 -528.62061,810.00348 -528.24464,810.39086 -527.79461,810.69278 -527.27051,810.90924 -526.74643,811.12572 -526.15398,811.23395 -525.49316,811.23395 -525.09442,811.23395 -524.71274,811.21117 -524.34814,811.16559 -523.98358,811.10863 -523.61899,811.01179 -523.25439,810.87506 -522.88983,810.73835 -522.50815,810.56176 -522.10937,810.34528 -521.71063,810.11742 -521.27769,809.83259 -520.81055,809.49078 L -520.81055,812.53278 M -534.80713,806.72223 C -534.80713,807.95271 -534.57357,809.11482 -534.10645,810.20856 -533.63933,811.29092 -533.00131,812.23656 -532.19238,813.04547 -531.38347,813.843 -530.43783,814.47533 -529.35547,814.94244 -528.27312,815.40957 -527.11671,815.64313 -525.88623,815.64313 -524.64438,815.64313 -523.48227,815.40957 -522.3999,814.94244 -521.30617,814.47533 -520.35484,813.843 -519.5459,813.04547 -518.72561,812.23656 -518.08189,811.29092 -517.61475,810.20856 -517.14765,809.11482 -516.91408,807.95271 -516.91406,806.72223 -516.91408,805.48038 -517.14765,804.31827 -517.61475,803.2359 -518.08189,802.14217 -518.72561,801.19083 -519.5459,800.3819 -520.35484,799.573 -521.30617,798.93498 -522.3999,798.46783 -523.48227,798.00073 -524.64438,797.76717 -525.88623,797.76715 -527.11671,797.76717 -528.27312,798.00073 -529.35547,798.46783 -530.43783,798.93498 -531.38347,799.573 -532.19238,800.3819 -533.00131,801.19083 -533.63933,802.14217 -534.10645,803.2359 -534.57357,804.31827 -534.80713,805.48038 -534.80713,806.72223"
 inkscape:connector-curvature="0" />
<path
 id="path3880"
 d="M -487.04102,801.57819 C -487.48538,801.36173 -488.07213,801.11678 -488.80127,800.84332 -489.53046,800.5699 -490.35647,800.31356 -491.2793,800.07428 -492.20217,799.82365 -493.20477,799.61857 -494.28711,799.45905 -495.36948,799.28817 -496.48032,799.20272 -497.61963,799.2027 -498.5311,799.20272 -499.31154,799.2312 -499.96094,799.28815 -500.59897,799.34513 -501.14015,799.41919 -501.58447,799.51031 -502.01743,799.60148 -502.36492,799.70972 -502.62695,799.83502 -502.87761,799.94897 -503.0713,800.0686 -503.20801,800.19391 -503.34474,800.31925 -503.43588,800.44458 -503.48145,800.56989 -503.51563,800.69523 -503.53272,800.80916 -503.53271,800.91168 -503.53272,801.2535 -503.36183,801.55542 -503.02002,801.81744 -502.67823,802.06811 -502.21111,802.29598 -501.61865,802.50104 -501.02622,802.69474 -500.33693,802.88273 -499.55078,803.065 -498.76466,803.23592 -497.93296,803.41821 -497.05566,803.61188 -496.16701,803.79418 -495.25555,803.99926 -494.32129,804.22711 -493.37567,804.4436 -492.46421,804.69994 -491.58691,804.99615 -490.69826,805.29239 -489.86086,805.63989 -489.07471,806.03864 -488.2886,806.42602 -487.59931,806.88175 -487.00684,807.40582 -486.41441,807.92992 -485.94729,808.53376 -485.60547,809.21735 -485.2637,809.90095 -485.0928,810.68138 -485.09277,811.55865 -485.0928,812.68659 -485.29218,813.65501 -485.69092,814.46393 -486.08971,815.27285 -486.62519,815.95644 -487.29736,816.51471 -487.95819,817.07298 -488.72724,817.52301 -489.60449,817.86481 -490.48179,818.19521 -491.40464,818.45156 -492.37305,818.63385 -493.3301,818.81614 -494.30422,818.93577 -495.29541,818.99274 -496.27524,819.0497 -497.20949,819.07819 -498.09814,819.07819 -500.42238,819.07819 -502.57569,818.8845 -504.55811,818.49713 -506.52914,818.12116 -508.2723,817.64834 -509.7876,817.07867 L -509.7876,811.47321 C -508.22673,812.3391 -506.44939,813.01699 -504.45557,813.5069 -502.45037,813.99681 -500.30844,814.24176 -498.02979,814.24176 -496.6854,814.24176 -495.59165,814.17341 -494.74854,814.03668 -493.89406,813.88857 -493.22756,813.70628 -492.74902,813.48981 -492.27053,813.26195 -491.94582,813.01699 -491.7749,812.75494 -491.60402,812.49291 -491.51858,812.24225 -491.51855,812.00299 -491.51858,811.62702 -491.68947,811.30231 -492.03125,811.02887 -492.37307,810.74405 -492.84019,810.49909 -493.43262,810.29401 -494.02508,810.07754 -494.71437,809.88386 -495.50049,809.71295 -496.28664,809.53067 -497.12404,809.35407 -498.0127,809.18317 -498.88999,809.00088 -499.79575,808.8072 -500.72998,808.60211 -501.66424,808.39704 -502.57569,808.15779 -503.46436,807.88434 -504.34164,807.59952 -505.17335,807.27481 -505.95947,806.91022 -506.74561,806.53425 -507.4349,806.09561 -508.02734,805.5943 -508.6198,805.08162 -509.08692,804.49487 -509.42871,803.83405 -509.77051,803.16186 -509.94141,802.38712 -509.94141,801.50983 -509.94141,800.47306 -509.75912,799.57869 -509.39453,798.82672 -509.02995,798.07479 -508.54004,797.43677 -507.9248,796.91266 -507.29818,796.3772 -506.58041,795.94426 -505.77148,795.61383 -504.95118,795.28345 -504.09099,795.0271 -503.19092,794.84479 -502.29086,794.66252 -501.37941,794.53719 -500.45654,794.46881 -499.5337,794.40048 -498.65643,794.3663 -497.82471,794.36627 -496.91326,794.3663 -495.97902,794.41187 -495.02197,794.50299 -494.05357,794.59416 -493.10223,794.72518 -492.16797,794.89606 -491.23375,795.05559 -490.33368,795.24357 -489.46777,795.46002 -488.59052,795.67652 -487.7816,795.90438 -487.04102,796.14362 L -487.04102,801.57819"
 inkscape:connector-curvature="0" />
<path
 id="path3882"
 d="M -449.22119,818.44586 -449.22119,801.95416 -457.93701,818.44586 -464.021,818.44586 -472.73682,801.95416 -472.73682,818.44586 -479.07715,818.44586 -479.07715,794.96442 -470.46387,794.96442 -460.979,812.73785 -451.49414,794.96442 -442.91504,794.96442 -442.91504,818.44586 -449.22119,818.44586"
 inkscape:connector-curvature="0" />
<path
 id="path3884"
 d="M -416.66504,814.0025 -429.75586,814.0025 -431.96045,818.44586 -439.03564,818.44586 -426.74805,794.96442 -419.67285,794.96442 -407.38525,818.44586 -414.46045,818.44586 -416.66504,814.0025 M -427.48291,809.42242 -418.90381,809.42242 -423.17627,800.77496 -427.48291,809.42242"
 inkscape:connector-curvature="0" />
<path
 id="path3886"
 d="M -381.9043,801.57819 C -382.34866,801.36173 -382.93541,801.11678 -383.66455,800.84332 -384.39374,800.5699 -385.21975,800.31356 -386.14258,800.07428 -387.06545,799.82365 -388.06805,799.61857 -389.15039,799.45905 -390.23276,799.28817 -391.3436,799.20272 -392.48291,799.2027 -393.39438,799.20272 -394.17482,799.2312 -394.82422,799.28815 -395.46225,799.34513 -396.00343,799.41919 -396.44775,799.51031 -396.88071,799.60148 -397.2282,799.70972 -397.49023,799.83502 -397.74089,799.94897 -397.93458,800.0686 -398.07129,800.19391 -398.20802,800.31925 -398.29916,800.44458 -398.34473,800.56989 -398.37892,800.69523 -398.396,800.80916 -398.396,800.91168 -398.396,801.2535 -398.22511,801.55542 -397.8833,801.81744 -397.54151,802.06811 -397.07439,802.29598 -396.48193,802.50104 -395.8895,802.69474 -395.20021,802.88273 -394.41406,803.065 -393.62794,803.23592 -392.79624,803.41821 -391.91895,803.61188 -391.03029,803.79418 -390.11883,803.99926 -389.18457,804.22711 -388.23895,804.4436 -387.32749,804.69994 -386.4502,804.99615 -385.56155,805.29239 -384.72414,805.63989 -383.93799,806.03864 -383.15188,806.42602 -382.46259,806.88175 -381.87012,807.40582 -381.2777,807.92992 -380.81057,808.53376 -380.46875,809.21735 -380.12698,809.90095 -379.95608,810.68138 -379.95605,811.55865 -379.95608,812.68659 -380.15546,813.65501 -380.5542,814.46393 -380.95299,815.27285 -381.48847,815.95644 -382.16064,816.51471 -382.82148,817.07298 -383.59052,817.52301 -384.46777,817.86481 -385.34507,818.19521 -386.26792,818.45156 -387.23633,818.63385 -388.19338,818.81614 -389.1675,818.93577 -390.15869,818.99274 -391.13853,819.0497 -392.07277,819.07819 -392.96143,819.07819 -395.28566,819.07819 -397.43897,818.8845 -399.42139,818.49713 -401.39242,818.12116 -403.13558,817.64834 -404.65088,817.07867 L -404.65088,811.47321 C -403.09001,812.3391 -401.31267,813.01699 -399.31885,813.5069 -397.31365,813.99681 -395.17172,814.24176 -392.89307,814.24176 -391.54868,814.24176 -390.45493,814.17341 -389.61182,814.03668 -388.75734,813.88857 -388.09084,813.70628 -387.6123,813.48981 -387.13381,813.26195 -386.8091,813.01699 -386.63818,812.75494 -386.46731,812.49291 -386.38186,812.24225 -386.38184,812.00299 -386.38186,811.62702 -386.55276,811.30231 -386.89453,811.02887 -387.23635,810.74405 -387.70347,810.49909 -388.2959,810.29401 -388.88836,810.07754 -389.57765,809.88386 -390.36377,809.71295 -391.14992,809.53067 -391.98732,809.35407 -392.87598,809.18317 -393.75327,809.00088 -394.65903,808.8072 -395.59326,808.60211 -396.52752,808.39704 -397.43897,808.15779 -398.32764,807.88434 -399.20492,807.59952 -400.03663,807.27481 -400.82275,806.91022 -401.60889,806.53425 -402.29818,806.09561 -402.89062,805.5943 -403.48308,805.08162 -403.9502,804.49487 -404.29199,803.83405 -404.63379,803.16186 -404.80469,802.38712 -404.80469,801.50983 -404.80469,800.47306 -404.6224,799.57869 -404.25781,798.82672 -403.89323,798.07479 -403.40332,797.43677 -402.78809,796.91266 -402.16146,796.3772 -401.44369,795.94426 -400.63477,795.61383 -399.81446,795.28345 -398.95427,795.0271 -398.0542,794.84479 -397.15414,794.66252 -396.24269,794.53719 -395.31982,794.46881 -394.39699,794.40048 -393.51971,794.3663 -392.68799,794.36627 -391.77655,794.3663 -390.8423,794.41187 -389.88525,794.50299 -388.91685,794.59416 -387.96551,794.72518 -387.03125,794.89606 -386.09703,795.05559 -385.19696,795.24357 -384.33105,795.46002 -383.4538,795.67652 -382.64488,795.90438 -381.9043,796.14362 L -381.9043,801.57819"
 inkscape:connector-curvature="0" />
<path
 id="path3888"
 d="M -351.46729,818.44586 -351.46729,808.65338 -367.6001,808.65338 -367.6001,818.44586 -373.94043,818.44586 -373.94043,794.96442 -367.6001,794.96442 -367.6001,803.50934 -351.46729,803.50934 -351.46729,794.96442 -345.12695,794.96442 -345.12695,818.44586 -351.46729,818.44586"
 inkscape:connector-curvature="0" />
<path
 id="path3890"
 d="M -337.70996,818.44586 -337.70996,794.96442 -331.36963,794.96442 -331.36963,818.44586 -337.70996,818.44586"
 inkscape:connector-curvature="0" />
<path
 id="path3892"
 d="M -301.85547,818.44586 -317.69775,802.31305 -317.69775,818.44586 -324.03809,818.44586 -324.03809,794.96442 -317.15088,794.96442 -301.2915,811.16559 -301.2915,794.96442 -294.98535,794.96442 -294.98535,818.44586 -301.85547,818.44586"
 inkscape:connector-curvature="0" />
<path
 id="path3894"
 d="M -272.47803,794.36627 C -270.17662,794.3663 -268.04039,794.56568 -266.06934,794.96442 -264.08694,795.35181 -262.26972,795.85311 -260.61768,796.46832 L -260.61768,802.21051 C -261.26712,801.84594 -262.00198,801.49275 -262.82227,801.15094 -263.63121,800.80916 -264.51419,800.50724 -265.47119,800.24518 -266.42825,799.98315 -267.45364,799.77238 -268.54736,799.61285 -269.64113,799.45337 -270.79185,799.37362 -271.99951,799.3736 -273.50344,799.37362 -274.81366,799.48185 -275.93018,799.6983 -277.04673,799.91479 -278.00376,800.20532 -278.80127,800.56989 -279.59881,800.93449 -280.25392,801.36173 -280.7666,801.85162 -281.27931,802.33016 -281.68377,802.84285 -281.97998,803.38971 -282.27621,803.9366 -282.48129,804.49487 -282.59521,805.06451 -282.70916,805.63419 -282.76612,806.18676 -282.76611,806.72223 -282.76612,807.18936 -282.72055,807.69636 -282.62939,808.24323 -282.52686,808.79011 -282.34457,809.33698 -282.08252,809.88385 -281.80909,810.43073 -281.43312,810.95482 -280.95459,811.45612 -280.47609,811.95742 -279.85515,812.40176 -279.0918,812.78912 -278.31707,813.1765 -277.38852,813.48981 -276.30615,813.72906 -275.22381,813.95693 -273.93638,814.07087 -272.44385,814.07086 -271.69191,814.07087 -271.0368,814.04808 -270.47852,814.0025 -269.92027,813.95693 -269.41327,813.89427 -268.95752,813.81451 -268.49042,813.73477 -268.05748,813.63792 -267.65869,813.52399 -267.24856,813.41006 -266.82701,813.29043 -266.39404,813.1651 L -266.39404,810.32819 -273.50342,810.32819 -273.50342,805.18414 -260.05371,805.18414 -260.05371,817.18121 C -260.89684,817.46605 -261.84248,817.72809 -262.89062,817.96735 -263.92744,818.19521 -265.0041,818.3889 -266.12061,818.5484 -267.22577,818.7193 -268.33661,818.85032 -269.45312,818.94147 -270.56968,819.03261 -271.62355,819.07819 -272.61475,819.07819 -274.15285,819.07819 -275.62827,818.97565 -277.04102,818.77057 -278.45379,818.56549 -279.7754,818.25218 -281.00586,817.83063 -282.22494,817.39769 -283.34148,816.85081 -284.35547,816.19 -285.35808,815.5292 -286.21827,814.74307 -286.93604,813.8316 -287.64242,812.92015 -288.19499,811.87767 -288.59375,810.70416 -288.98112,809.51928 -289.17481,808.19197 -289.1748,806.72223 -289.17481,805.26391 -288.96973,803.9423 -288.55957,802.75739 -288.14942,801.57251 -287.57976,800.52433 -286.85059,799.61285 -286.11003,798.70142 -285.22706,797.91528 -284.20166,797.25446 -283.16488,796.59367 -282.03126,796.05249 -280.80078,795.63092 -279.55893,795.198 -278.23732,794.87899 -276.83594,794.67389 -275.42319,794.46884 -273.97056,794.3663 -272.47803,794.36627"
 inkscape:connector-curvature="0" />
<path
 id="path3896"
 d="M -253.21777,818.44586 -253.21777,794.96442 -246.87744,794.96442 -246.87744,813.30182 -229.73633,813.30182 -229.73633,818.44586 -253.21777,818.44586"
 inkscape:connector-curvature="0" />
<path
 id="path3898"
 d="M -194.25781,806.72223 C -194.25785,808.73884 -194.62813,810.52188 -195.36865,812.07135 -196.10924,813.60944 -197.16881,814.89687 -198.54736,815.93365 -199.92597,816.97044 -201.60078,817.75657 -203.57178,818.29205 -205.53144,818.81614 -207.73602,819.07819 -210.18555,819.07819 -212.63511,819.07819 -214.85109,818.81614 -216.8335,818.29205 -218.80453,817.75657 -220.48503,816.97044 -221.875,815.93365 -223.26498,814.89687 -224.33594,813.60944 -225.08789,812.07135 -225.83985,810.52188 -226.21582,808.73884 -226.21582,806.72223 -226.21582,804.70564 -225.83985,802.9283 -225.08789,801.3902 -224.33594,799.84074 -223.26498,798.54761 -221.875,797.5108 -220.48503,796.47404 -218.80453,795.69361 -216.8335,795.16949 -214.85109,794.63404 -212.63511,794.3663 -210.18555,794.36627 -207.73602,794.3663 -205.53144,794.63404 -203.57178,795.16949 -201.60078,795.69361 -199.92597,796.47404 -198.54736,797.5108 -197.16881,798.54761 -196.10924,799.84074 -195.36865,801.3902 -194.62813,802.9283 -194.25785,804.70564 -194.25781,806.72223 M -200.6665,806.72223 C -200.66653,805.84496 -200.80895,804.97338 -201.09375,804.10748 -201.36721,803.23022 -201.86282,802.44409 -202.58057,801.74908 -203.28697,801.05411 -204.2554,800.49015 -205.48584,800.05719 -206.71633,799.62427 -208.2829,799.40779 -210.18555,799.40778 -211.46161,799.40779 -212.58384,799.51033 -213.55225,799.71539 -214.52068,799.9091 -215.35809,800.18253 -216.06445,800.53571 -216.77084,800.88891 -217.36329,801.30477 -217.8418,801.78326 -218.32032,802.2504 -218.702,802.7574 -218.98682,803.30426 -219.27166,803.83976 -219.47673,804.40372 -219.60205,804.99615 -219.71599,805.57722 -219.77296,806.15258 -219.77295,806.72223 -219.77296,807.30329 -219.71599,807.89005 -219.60205,808.48248 -219.47673,809.07494 -219.27166,809.6446 -218.98682,810.19147 -218.702,810.72696 -218.32032,811.22826 -217.8418,811.69537 -217.36329,812.1625 -216.77084,812.57266 -216.06445,812.92584 -215.35809,813.26764 -214.52068,813.54108 -213.55225,813.74615 -212.58384,813.93984 -211.46161,814.03669 -210.18555,814.03668 -208.2829,814.03669 -206.71633,813.82022 -205.48584,813.38727 -204.2554,812.95433 -203.28697,812.39037 -202.58057,811.69537 -201.86282,811.00039 -201.36721,810.21996 -201.09375,809.35406 -200.80895,808.4768 -200.66653,807.59952 -200.6665,806.72223"
 inkscape:connector-curvature="0" />
<path
 id="path3900"
 d="M -173.28857,794.36627 C -170.98716,794.3663 -168.85093,794.56568 -166.87988,794.96442 -164.89749,795.35181 -163.08027,795.85311 -161.42822,796.46832 L -161.42822,802.21051 C -162.07767,801.84594 -162.81253,801.49275 -163.63281,801.15094 -164.44176,800.80916 -165.32473,800.50724 -166.28174,800.24518 -167.23879,799.98315 -168.26418,799.77238 -169.35791,799.61285 -170.45168,799.45337 -171.6024,799.37362 -172.81006,799.3736 -174.31398,799.37362 -175.6242,799.48185 -176.74072,799.6983 -177.85727,799.91479 -178.8143,800.20532 -179.61182,800.56989 -180.40935,800.93449 -181.06446,801.36173 -181.57715,801.85162 -182.08985,802.33016 -182.49431,802.84285 -182.79053,803.38971 -183.08676,803.9366 -183.29184,804.49487 -183.40576,805.06451 -183.5197,805.63419 -183.57667,806.18676 -183.57666,806.72223 -183.57667,807.18936 -183.5311,807.69636 -183.43994,808.24323 -183.33741,808.79011 -183.15512,809.33698 -182.89307,809.88385 -182.61964,810.43073 -182.24366,810.95482 -181.76514,811.45612 -181.28663,811.95742 -180.6657,812.40176 -179.90234,812.78912 -179.12762,813.1765 -178.19907,813.48981 -177.1167,813.72906 -176.03436,813.95693 -174.74692,814.07087 -173.25439,814.07086 -172.50246,814.07087 -171.84735,814.04808 -171.28906,814.0025 -170.73082,813.95693 -170.22382,813.89427 -169.76807,813.81451 -169.30097,813.73477 -168.86802,813.63792 -168.46924,813.52399 -168.05911,813.41006 -167.63756,813.29043 -167.20459,813.1651 L -167.20459,810.32819 -174.31396,810.32819 -174.31396,805.18414 -160.86426,805.18414 -160.86426,817.18121 C -161.70739,817.46605 -162.65302,817.72809 -163.70117,817.96735 -164.73798,818.19521 -165.81464,818.3889 -166.93115,818.5484 -168.03632,818.7193 -169.14716,818.85032 -170.26367,818.94147 -171.38023,819.03261 -172.4341,819.07819 -173.42529,819.07819 -174.9634,819.07819 -176.43882,818.97565 -177.85156,818.77057 -179.26434,818.56549 -180.58595,818.25218 -181.81641,817.83063 -183.03549,817.39769 -184.15203,816.85081 -185.16602,816.19 -186.16863,815.5292 -187.02881,814.74307 -187.74658,813.8316 -188.45297,812.92015 -189.00554,811.87767 -189.4043,810.70416 -189.79167,809.51928 -189.98535,808.19197 -189.98535,806.72223 -189.98535,805.26391 -189.78028,803.9423 -189.37012,802.75739 -188.95996,801.57251 -188.3903,800.52433 -187.66113,799.61285 -186.92058,798.70142 -186.0376,797.91528 -185.01221,797.25446 -183.97543,796.59367 -182.84181,796.05249 -181.61133,795.63092 -180.36948,795.198 -179.04786,794.87899 -177.64648,794.67389 -176.23374,794.46884 -174.7811,794.3663 -173.28857,794.36627"
 inkscape:connector-curvature="0" />
<path
 id="path3902"
 d="M -123.64258,806.72223 C -123.64261,808.73884 -124.01289,810.52188 -124.75342,812.07135 -125.49401,813.60944 -126.55358,814.89687 -127.93213,815.93365 -129.31074,816.97044 -130.98554,817.75657 -132.95654,818.29205 -134.9162,818.81614 -137.12079,819.07819 -139.57031,819.07819 -142.01987,819.07819 -144.23585,818.81614 -146.21826,818.29205 -148.1893,817.75657 -149.8698,816.97044 -151.25977,815.93365 -152.64974,814.89687 -153.72071,813.60944 -154.47266,812.07135 -155.22461,810.52188 -155.60059,808.73884 -155.60059,806.72223 -155.60059,804.70564 -155.22461,802.9283 -154.47266,801.3902 -153.72071,799.84074 -152.64974,798.54761 -151.25977,797.5108 -149.8698,796.47404 -148.1893,795.69361 -146.21826,795.16949 -144.23585,794.63404 -142.01987,794.3663 -139.57031,794.36627 -137.12079,794.3663 -134.9162,794.63404 -132.95654,795.16949 -130.98554,795.69361 -129.31074,796.47404 -127.93213,797.5108 -126.55358,798.54761 -125.49401,799.84074 -124.75342,801.3902 -124.01289,802.9283 -123.64261,804.70564 -123.64258,806.72223 M -130.05127,806.72223 C -130.0513,805.84496 -130.19371,804.97338 -130.47852,804.10748 -130.75198,803.23022 -131.24759,802.44409 -131.96533,801.74908 -132.67174,801.05411 -133.64016,800.49015 -134.87061,800.05719 -136.1011,799.62427 -137.66766,799.40779 -139.57031,799.40778 -140.84637,799.40779 -141.9686,799.51033 -142.93701,799.71539 -143.90545,799.9091 -144.74285,800.18253 -145.44922,800.53571 -146.15561,800.88891 -146.74806,801.30477 -147.22656,801.78326 -147.70509,802.2504 -148.08676,802.7574 -148.37158,803.30426 -148.65642,803.83976 -148.8615,804.40372 -148.98682,804.99615 -149.10076,805.57722 -149.15772,806.15258 -149.15771,806.72223 -149.15772,807.30329 -149.10076,807.89005 -148.98682,808.48248 -148.8615,809.07494 -148.65642,809.6446 -148.37158,810.19147 -148.08676,810.72696 -147.70509,811.22826 -147.22656,811.69537 -146.74806,812.1625 -146.15561,812.57266 -145.44922,812.92584 -144.74285,813.26764 -143.90545,813.54108 -142.93701,813.74615 -141.9686,813.93984 -140.84637,814.03669 -139.57031,814.03668 -137.66766,814.03669 -136.1011,813.82022 -134.87061,813.38727 -133.64016,812.95433 -132.67174,812.39037 -131.96533,811.69537 -131.24759,811.00039 -130.75198,810.21996 -130.47852,809.35406 -130.19371,808.4768 -130.0513,807.59952 -130.05127,806.72223"
 inkscape:connector-curvature="0" />
</g>
</g>
</svg>
